HIERARCHY
ROOT pelvis
{
  OFFSET 0 100 0
  CHANNELS 6 Xposition Yposition Zposition Zrotation Xrotation Yrotation
  JOINT pelvis_right_femur
  {
    OFFSET -10.78128 -3.44521 -0.5502486
    CHANNELS 3 Zrotation Xrotation Yrotation
    JOINT right_femur_tibia
    {
      OFFSET -0.8047443 -44.0398 -0.1307829
      CHANNELS 3 Zrotation Xrotation Yrotation
      JOINT right_tibia_foot
      {
        OFFSET 3.006224 -47.83518 -5
        CHANNELS 3 Zrotation Xrotation Yrotation
        End Site
        {
          OFFSET 0 -5 15
        }
      }
    }
  }
  JOINT pelvis_left_femur
  {
    OFFSET 10.78128 -3.44521 -0.5502486
    CHANNELS 3 Zrotation Xrotation Yrotation
    JOINT left_femur_tibia
    {
      OFFSET 0.8047443 -44.0398 -0.1307829
      CHANNELS 3 Zrotation Xrotation Yrotation
      JOINT left_tibia_foot
      {
        OFFSET -4.370144 -48.10324 -4.275266
        CHANNELS 3 Zrotation Xrotation Yrotation
        End Site
        {
          OFFSET 0 -5 15
        }
      }
    }
  }
  JOINT pelvis_spine1
  {
    OFFSET 0 6.468898 -3.129235
    CHANNELS 3 Zrotation Xrotation Yrotation
    JOINT spine1
    {
      OFFSET 0 23.15396 4.99043
      CHANNELS 3 Zrotation Xrotation Yrotation
      JOINT spine2
      {
        OFFSET 0 20.79997 -5.064912
        CHANNELS 3 Zrotation Xrotation Yrotation
        JOINT neck
        {
          OFFSET 0 14.38658 9.616178
          CHANNELS 3 Zrotation Xrotation Yrotation
          End Site
          {
            OFFSET 0 20 0
          }
        }
      }
      JOINT right_manubrium
      {
        OFFSET -5.722621 16.35077 3.967754
        CHANNELS 3 Zrotation Xrotation Yrotation
        JOINT right_clavicle
        {
          OFFSET -13.16364 1.694482 -4.693211
          CHANNELS 3 Zrotation Xrotation Yrotation
          JOINT right_humerus
          {
            OFFSET -28.5034 -0.3100689 -2.792744
            CHANNELS 3 Zrotation Xrotation Yrotation
            JOINT right_radius
            {
              OFFSET -25.15693 0.02248979 -1.271978
              CHANNELS 3 Zrotation Xrotation Yrotation
              End Site
              {
                OFFSET -15 0 0
              }
            }
          }
        }
      }
      JOINT left_manubrium
      {
        OFFSET 5.722621 16.35077 3.967754
        CHANNELS 3 Zrotation Xrotation Yrotation
        JOINT left_clavicle
        {
          OFFSET 13.16364 1.694482 -4.693211
          CHANNELS 3 Zrotation Xrotation Yrotation
          JOINT left_humerus
          {
            OFFSET 29.39168 -1.063119 -2.237045
            CHANNELS 3 Zrotation Xrotation Yrotation
            JOINT left_radius
            {
              OFFSET 24.59957 -0.9528479 0.9047498
              CHANNELS 3 Zrotation Xrotation Yrotation
              End Site
              {
                OFFSET 15 -0 -0
              }
            }
          }
        }
      }
    }
  }
}
MOTION
Frames: 13
Frame Time: 0.0416666666667
0 103.5113 0 2.007053 -1.058122 -0.2732132 2.066226 -10.20683 9.012092 -3.729861e-06 35.22888 4.095679e-06 -5.270499 -19.31244 -2.827076 -8.096707 9.55131 -24.23567 -3.520082e-06 5.169643 -2.169183e-05 9.516508 -16.39065 29.01844 -4.776196 -5.429102 5.434751 2.309614 9.049353 -7.600489 1.224038 22.63621 6.768156 3.228339 -23.48268 8.891762 6.323333 -20.25794 11.49508 84.99759 35.82729 -19.04979 -9.282413e-07 8.323746e-07 16.70883 -7.254183 7.844035 4.045186 5.490727 -19.51139 -1.162308 -94.82062 29.66136 23.45152 -1.288956e-06 4.881869e-07 -16.34835 4.327226 18.72771 8.566028
0.3269983 103.6878 1.403134 1.67697 -1.04052 -0.4012391 2.474324 -12.85927 8.980579 -5.288918e-06 37.40087 3.725911e-06 -5.377535 -18.0951 -3.035832 -7.827403 10.56214 -24.03516 1.012923e-06 5.131084 -1.760333e-05 8.821123 -17.08301 27.83393 -4.487326 -4.84693 5.067444 2.309558 9.105709 -7.747028 1.177284 22.44341 6.932744 3.249062 -23.66559 9.019091 6.400796 -20.12194 11.55421 85.62087 35.72167 -19.46924 -9.10784e-07 6.092147e-07 16.69434 -7.124728 8.113885 4.068517 5.388388 -19.52292 -1.448352 -94.77847 29.81734 23.38771 -8.454759e-07 3.474579e-07 -16.62968 4.02475 18.20525 9.037808
0.6652804 103.855 2.885092 1.280792 -0.8263903 -0.3661079 3.033402 -15.86317 8.816928 -5.83323e-06 38.06277 2.84628e-06 -5.555411 -16.60741 -3.103584 -7.488963 11.48881 -23.65807 5.224811e-06 5.124752 -1.213373e-05 7.927496 -17.89341 26.48279 -4.129741 -4.183059 4.675971 2.361746 9.127063 -7.888511 1.107781 22.18966 7.165143 3.348981 -23.96036 9.137715 6.433178 -19.93309 11.62261 86.1826 35.6355 -19.91739 -1.113645e-06 3.445187e-07 16.49564 -7.073876 8.351181 4.181042 5.409915 -19.63532 -1.729568 -94.66382 29.88771 23.18133 -3.083205e-07 -9.787927e-08 -17.18261 3.818628 17.6294 9.397209
1.005125 103.9341 4.487429 0.8743312 -0.4077904 -0.2100812 3.685745 -18.94409 8.543622 -5.051429e-06 36.87768 1.408088e-06 -5.734265 -14.9116 -2.972228 -7.147942 12.23632 -23.15034 8.611589e-06 5.12793 -5.369186e-06 6.945417 -18.78952 25.16423 -3.7504 -3.519045 4.321704 2.463011 9.11839 -7.997409 1.021162 21.88187 7.466465 3.550252 -24.35089 9.238228 6.420126 -19.70304 11.70376 86.56854 35.56377 -20.3615 -1.656963e-06 1.461729e-07 16.1044 -7.137965 8.486356 4.378654 5.595532 -19.85806 -1.972973 -94.46836 29.83359 22.82146 2.507002e-07 -9.890963e-07 -18.02149 3.75021 17.05962 9.580249
1.335466 103.8652 6.298236 0.4841539 0.1685246 0.02711126 4.370991 -21.97092 8.173776 -3.006322e-06 34.14178 -2.01398e-07 -5.839482 -12.98822 -2.696062 -6.836003 12.92405 -22.51575 1.026463e-05 5.29059 1.632862e-06 5.829296 -19.75361 23.89072 -3.368565 -2.907529 4.018739 2.59054 9.068452 -8.070294 0.9432438 21.5539 7.81358 3.839421 -24.78921 9.32821 6.346336 -19.40182 11.771 86.90165 35.4363 -20.86729 -2.44951e-06 3.056896e-08 15.51566 -7.365707 8.522098 4.644584 5.938453 -20.1735 -2.166102 -94.23913 29.67696 22.27335 5.723933e-07 -2.286141e-06 -19.13451 3.765842 16.48526 9.655665
1.647289 103.6037 8.338112 0.1266158 0.839391 0.2971428 5.043946 -24.66629 7.775375 -4.676572e-07 30.21576 -1.681773e-06 -5.917987 -11.06988 -2.29687 -6.56353 13.41221 -21.83829 1.094969e-05 5.545077 8.793242e-06 4.723631 -20.6477 22.77164 -3.011195 -2.375558 3.783689 2.738951 8.99228 -8.09621 0.8706485 21.20751 8.170262 4.1804 -25.23782 9.392484 6.241792 -19.07636 11.8298 87.00494 35.31197 -21.29554 -3.433643e-06 -1.440174e-08 14.81811 -7.660392 8.455465 4.939713 6.376189 -20.52026 -2.295574 -93.9379 29.43453 21.64371 7.951141e-07 -3.836348e-06 -20.32443 3.869356 15.96458 9.599457
1.93354 103.1663 10.70453 -0.2270869 1.605339 0.581888 5.668627 -27.02189 7.328881 2.539858e-06 25.84595 -2.368568e-06 -6.001443 -9.279213 -1.873218 -6.298543 13.9488 -21.10394 9.19507e-06 6.120485 1.336908e-05 3.510705 -21.35398 21.56274 -2.65675 -1.981358 3.580281 2.900633 8.846935 -8.128049 0.8123149 20.86619 8.48628 4.508506 -25.68121 9.433413 6.115247 -18.69078 11.83214 87.11671 35.21726 -21.77498 -4.281615e-06 -8.453043e-08 14.01786 -7.958835 8.392447 5.216351 6.816276 -20.86021 -2.346064 -93.58666 29.17861 20.94495 6.392434e-07 -4.985711e-06 -21.55196 3.991762 15.46418 9.508704
2.190053 102.5961 13.43576 -0.5646818 2.283733 0.8771268 6.176432 -28.81401 6.878437 4.825301e-06 21.94672 -2.292526e-06 -6.156755 -7.861749 -1.533551 -6.024898 14.41209 -20.34378 6.77452e-06 7.102169 1.506669e-05 2.263181 -21.71824 20.28224 -2.316787 -1.685524 3.389269 3.040282 8.658695 -8.162739 0.7717801 20.5928 8.705319 4.750388 -26.01946 9.437151 5.973972 -18.27588 11.77705 87.24592 35.15053 -22.20225 -4.768959e-06 -2.712864e-07 13.21187 -8.20487 8.385961 5.435325 7.1458 -21.13042 -2.354657 -93.16514 28.9845 20.23143 3.063234e-07 -5.572948e-06 -22.60256 4.086544 15.00538 9.437119
2.429121 102.0213 16.67187 -0.941564 2.879189 1.209885 6.577824 -29.8355 6.450406 6.152477e-06 19.43094 -1.158704e-06 -6.39982 -6.782646 -1.339289 -5.69974 14.8865 -19.53794 2.807655e-06 8.820406 1.149935e-05 0.8191271 -21.50419 18.6837 -1.940806 -1.5416 3.188613 3.142285 8.415256 -8.225946 0.7619156 20.36944 8.776971 4.853284 -26.27402 9.400585 5.839207 -17.84442 11.63549 87.55649 35.12199 -22.59112 -4.546373e-06 -8.303088e-07 12.49953 -8.357414 8.562338 5.596199 7.243152 -21.23576 -2.311937 -92.81023 28.88766 19.73254 -5.29392e-07 -5.205363e-06 -23.24343 4.039945 14.52476 9.547011
2.665979 101.6027 20.46219 -1.344519 3.274472 1.596738 6.872416 -29.89562 6.108184 5.670969e-06 18.77078 5.784005e-07 -6.826718 -6.018337 -1.296555 -5.331863 15.18082 -18.73119 -6.84682e-07 11.53246 4.271138e-06 -0.6390054 -20.53933 16.91443 -1.54918 -1.511761 2.976825 3.201929 8.192977 -8.305302 0.761015 20.19855 8.698337 4.815242 -26.41943 9.295866 5.766978 -17.4185 11.45242 87.87206 35.21697 -22.82136 -3.64414e-06 -1.810411e-06 11.8615 -8.358658 8.919405 5.684845 7.033569 -21.15362 -2.260076 -92.42975 28.87914 19.52091 -1.449046e-06 -3.921119e-06 -23.27638 3.888283 14.05859 9.789397
2.911889 101.4753 24.79118 -1.769903 3.383188 2.029954 7.171827 -29.11396 5.928469 3.643771e-06 19.55153 2.459045e-06 -7.42959 -5.57673 -1.420326 -4.898083 15.12012 -17.90569 -2.819179e-06 15.47494 -3.95488e-06 -2.06846 -18.88068 15.12531 -1.116 -1.495073 2.77398 3.222151 8.047619 -8.373212 0.7755393 20.08694 8.480188 4.654448 -26.43415 9.123974 5.740973 -17.02846 11.27525 88.1509 35.35339 -22.86744 -2.3426e-06 -3.096932e-06 11.3282 -8.220577 9.426634 5.694649 6.559716 -20.91774 -2.235044 -92.07463 28.93031 19.59913 -2.145881e-06 -2.003661e-06 -22.74869 3.634409 13.60608 10.15244
3.171961 101.7261 29.60055 -2.155299 3.213597 2.456261 7.537629 -27.398 5.914148 1.36008e-06 20.70766 4.229151e-06 -8.105785 -5.626791 -1.625921 -4.430729 14.28271 -16.9957 -4.240914e-06 20.98422 -1.13205e-05 -3.409629 -16.63607 13.55634 -0.6465778 -1.459497 2.70343 3.197001 8.016027 -8.379223 0.8040735 20.05984 8.159405 4.427037 -26.30544 8.879041 5.73447 -16.71747 11.16072 88.34139 35.47024 -22.74595 -1.107761e-06 -4.355172e-06 10.94874 -8.045177 9.993341 5.63358 5.932238 -20.61455 -2.228236 -91.85749 28.98127 19.94483 -2.534145e-06 1.810551e-07 -21.93064 3.309628 13.17174 10.58933
3.425961 102.3951 34.67713 -2.393947 2.702265 2.788831 7.947402 -24.93431 6.067382 -2.973589e-07 21.5966 5.198938e-06 -8.815454 -6.286866 -1.874383 -3.999471 12.42527 -16.02077 -4.735809e-06 28.19204 -1.44959e-05 -4.456399 -14.04887 12.51536 -0.2146278 -1.318943 2.830648 3.126203 8.153856 -8.295933 0.8193542 20.16789 7.803968 4.199802 -25.97602 8.556411 5.773529 -16.4583 11.17526 88.2882 35.61727 -22.49213 -4.408375e-07 -5.173724e-06 10.6162 -7.861731 10.47982 5.460043 5.247653 -20.3598 -2.273705 -91.62985 29.02361 20.29846 -2.094755e-06 2.303665e-06 -21.12898 3.013366 12.79717 10.95863
